<svg viewBox="0 0 64 64" fill="none" xmlns="http://www.w3.org/2000/svg">
  <g opacity="0.96">
    <path
      opacity="0.96"
      fill-rule="evenodd"
      clip-rule="evenodd"
      d="M31.2017 30.2074C31.712 30.2074 38.4695 23.5702 38.4695 22.9395C38.4695 21.789 32.4735 6.49182 31.2017 6.49182V30.2074Z"
      fill="white"
    />
  </g>
  <g opacity="0.6">
    <path
      opacity="0.6"
      fill-rule="evenodd"
      clip-rule="evenodd"
      d="M31.2001 6.49182C30.1324 6.49182 25.6473 17.268 24.2336 21.411C24.0396 21.9048 23.8959 22.4169 23.8047 22.9395C23.8047 23.571 30.689 30.2082 31.2001 30.2074V6.49182Z"
      fill="white"
    />
  </g>
  <g opacity="0.75">
    <g opacity="0.6">
      <path
        opacity="0.6"
        fill-rule="evenodd"
        clip-rule="evenodd"
        d="M32.2845 32.0835C32.2845 32.5938 38.9216 39.3514 39.5523 39.3514C40.7029 39.3546 56 33.3553 56 32.0835C48.0999 30.7536 40.1957 30.4841 32.2845 32.0835Z"
        fill="white"
      />
    </g>
    <g opacity="0.75">
      <path
        opacity="0.75"
        fill-rule="evenodd"
        clip-rule="evenodd"
        d="M56 32.0835C56 31.0159 45.2238 26.5308 41.0808 25.1171C40.587 24.9231 40.0749 24.7794 39.5523 24.6881C38.9208 24.6881 32.2837 31.5724 32.2845 32.0835H56Z"
        fill="white"
      />
    </g>
  </g>
  <g opacity="0.75">
    <g opacity="0.6">
      <path
        opacity="0.6"
        fill-rule="evenodd"
        clip-rule="evenodd"
        d="M31.1052 33.8616C30.5949 33.8616 23.8373 40.4988 23.8373 41.1295C23.8341 42.28 29.8334 57.5772 31.1052 57.5772C32.4351 49.677 32.7046 41.7729 31.1052 33.8616Z"
        fill="white"
      />
    </g>
    <g opacity="0.75">
      <path
        opacity="0.75"
        fill-rule="evenodd"
        clip-rule="evenodd"
        d="M31.1052 57.5772C32.1728 57.5772 36.6579 46.801 38.0716 42.658C38.2656 42.1642 38.4093 41.6521 38.5006 41.1295C38.5006 40.498 31.6163 33.8608 31.1052 33.8616L31.1052 57.5772Z"
        fill="white"
      />
    </g>
  </g>
  <g opacity="0.75">
    <g opacity="0.75">
      <path
        opacity="0.75"
        fill-rule="evenodd"
        clip-rule="evenodd"
        d="M30.0295 31.9887C30.0295 31.4784 23.3924 24.7208 22.7617 24.7208C21.6111 24.7208 6.314 30.7129 6.314 31.9887H30.0295Z"
        fill="white"
      />
    </g>
    <g opacity="0.6">
      <path
        opacity="0.6"
        fill-rule="evenodd"
        clip-rule="evenodd"
        d="M6.314 31.9887C6.314 33.0563 17.0902 37.5414 21.2332 38.9551C21.727 39.1491 22.2391 39.2928 22.7617 39.3841C23.3932 39.3841 30.0303 32.4998 30.0295 31.9887H6.314Z"
        fill="white"
      />
    </g>
  </g>
</svg>
